HIERARCHY
ROOT Hips
{
    OFFSET 0.000000 0.000000 0.000000
    CHANNELS 6 Xposition Yposition Zposition Zrotation Xrotation Yrotation
        JOINT Spine1
        {
            OFFSET -0.000000 23.269398 0.000000
            CHANNELS 3 Zrotation Xrotation Yrotation
            JOINT Neck
            {
                OFFSET -0.000000 18.032967 0.000000
                CHANNELS 3 Zrotation Xrotation Yrotation
                JOINT Head
                {
                    OFFSET -0.000000 13.091072 1.689171
                    CHANNELS 3 Zrotation Xrotation Yrotation
                    End Site
                    {
                        OFFSET -0.000000 16.891708 0.000000
                    }
                }
            }
            JOINT LeftShoulder
            {
                OFFSET 3.336773 14.146137 -0.012206
                CHANNELS 3 Zrotation Xrotation Yrotation
                JOINT LeftArm
                {
                    OFFSET 11.765518 0.000000 0.000000
                    CHANNELS 3 Zrotation Xrotation Yrotation
                    JOINT LeftForeArm
                    {
                        OFFSET 25.163450 0.000000 0.000000
                        CHANNELS 3 Zrotation Xrotation Yrotation
                        JOINT LeftHand
                        {
                            OFFSET 21.783554 0.000000 0.000000
                            CHANNELS 3 Zrotation Xrotation Yrotation
                            End Site
                            {
                                OFFSET 12.668781 0.000000 0.000000
                            }
                        }
                    }
                }
            }
            JOINT RightShoulder
            {
                OFFSET -3.409204 14.146137 -0.012206
                CHANNELS 3 Zrotation Xrotation Yrotation
                JOINT RightArm
                {
                    OFFSET -11.765518 0.000000 0.000000
                    CHANNELS 3 Zrotation Xrotation Yrotation
                    JOINT RightForeArm
                    {
                        OFFSET -25.163450 0.000000 0.000000
                        CHANNELS 3 Zrotation Xrotation Yrotation
                        JOINT RightHand
                        {
                            OFFSET -21.783554 0.000000 0.000000
                            CHANNELS 3 Zrotation Xrotation Yrotation
                            End Site
                            {
                                OFFSET -12.668781 0.000000 0.000000
                            }
                        }
                    }
                }
            }
        }
        JOINT LeftUpLeg
    {
        OFFSET 8.445854 0.000000 0.000000
        CHANNELS 3 Zrotation Xrotation Yrotation
        JOINT LeftLeg
        {
            OFFSET -0.000000 -40.674755 0.000000
            CHANNELS 3 Zrotation Xrotation Yrotation
            JOINT LeftFoot
            {
                OFFSET -0.000000 -37.111794 0.000000
                CHANNELS 3 Zrotation Xrotation Yrotation
                JOINT LeftToeBase
                {
                    OFFSET -0.000000 -5.489805 12.668781
                    CHANNELS 3 Zrotation Xrotation Yrotation
                    End Site
                    {
                        OFFSET -0.000000 0.000000 3.378341
                    }
                }
            }
        }
    }
    JOINT RightUpLeg
    {
        OFFSET -8.445854 0.000000 0.000000
        CHANNELS 3 Zrotation Xrotation Yrotation
        JOINT RightLeg
        {
            OFFSET -0.000000 -40.674755 0.000000
            CHANNELS 3 Zrotation Xrotation Yrotation
            JOINT RightFoot
            {
                OFFSET -0.000000 -37.111794 0.000000
                CHANNELS 3 Zrotation Xrotation Yrotation
                JOINT RightToeBase
                {
                    OFFSET -0.000000 -5.489805 12.668781
                    CHANNELS 3 Zrotation Xrotation Yrotation
                    End Site
                    {
                        OFFSET -0.000000 0.000000 3.378341
                    }
                }
            }
        }
    }
}
MOTION
Frames:    11
Frame Time:    0.008333
6.907506    84.322113    15.237032    1.819798    -2.690756    0.775932    0.020235    10.944942    -1.842808    -1.666149    8.207026    39.482445    -30.189121    -8.364501    41.211063    -16.166245    -39.275196    -37.945950    85.333504    -19.619844    126.153740    -90.958458    55.287220    88.486298    82.483879    86.028168    -92.527481    -5.068492    7.668696    -3.151011    45.092392    45.942696    40.773911    0.139327    -2.054809    25.759136    1.900952    -1.972933    6.849968    4.910245    -6.770206    0.607033    -0.772099    20.821081    9.676672    -4.758967    -3.627729    16.235577    -5.953008    -5.523730    5.893281    1.017308    4.741133    2.904859    -5.850911    -1.390544    -1.628045    0.891772    -2.057081    2.208938    -1.442777    2.306323    0.295363    
6.922471    84.320297    15.195671    1.924614    -2.665412    1.050929    0.039214    11.021287    -1.748624    -1.676674    8.144295    39.401150    -30.387733    -8.080924    41.212822    -16.194618    -39.160912    -37.986317    85.304169    -19.713062    126.149086    88.656723    -55.037380    91.260239    94.785522    -85.743568    84.485718    -5.203813    7.724800    -3.335851    44.824085    46.050198    41.050674    0.154224    -2.042378    25.528250    1.903608    -1.962835    6.885519    4.757895    -6.950906    0.904687    -0.946164    20.879501    10.075062    -4.486092    -4.153193    16.706747    -5.643133    -5.040483    6.025412    0.959477    4.726769    2.755082    -5.930247    -1.402977    -1.719560    0.919869    -2.037816    2.181580    -1.413612    2.273301    0.266050    
6.919494    84.330429    15.167286    1.939705    -2.642713    1.330328    0.095198    11.233006    -1.761425    -2.361035    8.547532    39.643810    -30.258921    -9.047689    41.043133    -16.219070    -39.253708    -38.013821    85.169258    -19.841072    126.127136    88.464775    -55.116455    91.226822    93.911926    -85.840080    83.391930    -5.205030    7.601674    -3.275931    44.719517    45.969025    40.977581    0.204894    -1.986615    25.375605    1.869289    -1.921215    6.831329    4.733473    -7.128847    1.250714    -1.143359    20.880133    10.641891    -4.037005    -4.165946    16.906033    -6.348328    -6.037707    5.992468    1.000382    4.697485    2.614339    -5.993634    -1.363578    -1.831752    0.938590    -2.066865    2.139488    -1.412855    2.272192    0.265721    
6.931733    84.335701    15.140833    1.992968    -2.620258    1.613121    0.145988    11.331311    -1.726349    -2.508601    8.559672    39.805416    -30.231798    -8.953056    41.197899    -16.054867    -39.120525    -37.780739    85.458382    -19.821325    126.330605    88.206528    -54.817841    90.880913    91.466301    -85.698708    80.859451    -5.267194    7.628318    -3.316462    44.400684    45.953079    41.193878    0.261250    -1.919072    25.073500    1.820171    -1.867900    6.872414    4.626535    -7.252360    1.586980    -1.359258    20.945116    11.206090    -4.897696    -4.398047    18.031824    -5.926228    -5.858169    4.890069    0.993793    4.700702    2.467341    -6.066797    -1.382566    -1.940848    0.997434    -2.081403    2.100763    -1.399838    2.265122    0.239486    
6.949703    84.340973    15.112511    2.035927    -2.591616    1.926979    0.149917    11.510859    -1.854743    -2.678748    8.479272    40.153454    -30.009678    -8.850131    41.531609    -16.039623    -39.267952    -37.767555    85.431885    -19.808714    126.287949    88.515167    -54.814346    91.102837    93.543694    -85.726349    83.205963    -5.205283    7.531265    -3.068501    44.166138    45.817276    41.150242    0.309620    -1.935608    24.806416    1.937082    -1.888276    6.819876    4.514798    -7.488234    1.976495    -1.429146    21.086084    11.871646    -4.427773    -5.726089    17.739918    -5.349131    -4.900341    5.325493    0.986538    4.683273    2.305669    -6.121922    -1.367726    -2.067651    1.031102    -2.104299    2.060324    -1.377051    2.221328    0.247361    
6.974310    84.342484    15.092124    2.062490    -2.568832    2.215394    0.223741    11.514718    -1.733364    -2.788840    8.558931    40.247261    -29.943150    -8.706702    41.637459    -15.940518    -39.035526    -37.583229    -36.033688    -4.879344    51.777771    -53.094746    36.223629    -12.185420    17.423229    29.784756    -10.207919    -5.245656    7.638406    -3.253300    43.952679    45.784164    41.286621    0.335977    -1.853707    24.525440    1.896287    -1.813529    6.833146    4.317096    -7.623669    2.000979    -1.599847    21.094538    12.981082    -4.215776    -5.919195    18.240488    -5.227327    -4.548673    5.792438    0.984993    4.671530    2.164950    -6.170083    -1.342979    -2.189689    1.080748    -2.156874    2.028247    -1.386778    2.259588    0.210469    
6.996407    84.342232    15.076476    2.071712    -2.543106    2.516335    0.282074    11.580224    -1.717683    -2.850073    8.557025    40.416920    -29.883121    -8.524414    41.840008    -15.953473    -39.127026    -37.621990    84.719017    -21.299284    125.499916    -89.776466    53.718010    88.094154    77.209618    84.816231    -87.387901    -5.257054    7.650184    -3.272143    61.777431    26.553024    36.481194    6.339809    10.774590    9.942491    0.147644    10.248634    13.191658    4.223255    -7.784153    2.467033    -1.568411    21.194748    13.664780    -4.292610    -5.949859    18.045778    -5.700100    -5.317919    5.505809    1.008234    4.646022    2.013480    -6.228411    -1.283386    -2.312135    1.129585    -2.244294    2.007030    -1.360441    2.254519    0.141490    
7.027855    84.342186    15.061983    2.079361    -2.509112    2.850820    0.293474    11.621373    -1.721008    -2.820227    8.656401    40.501831    -29.992828    -8.460251    41.947395    -15.810756    -39.044712    -37.430523    84.828156    -21.316637    125.686043    -89.497665    53.889839    87.829544    75.069351    84.922478    -85.261871    -5.174724    7.663656    -3.365824    61.400742    26.759592    36.573765    6.210080    10.693609    9.770994    0.178232    10.191185    13.074751    4.053781    -7.944368    2.973744    -1.621904    21.343491    14.077255    -4.395733    -6.031886    18.598591    -5.882663    -5.627791    5.352661    1.020870    4.635928    1.853900    -6.271311    -1.266486    -2.449186    1.171875    -2.288655    1.964862    -1.356655    2.251404    0.135643    
7.061437    84.337105    15.052801    2.073646    -2.482172    3.167382    0.378971    11.659538    -1.825179    -2.966280    8.658037    40.738335    -29.844723    -8.370790    42.171291    -15.543130    -38.961746    -36.961269    85.389549    -21.028200    125.977028    -89.582817    53.767258    88.119461    76.223640    85.065559    -86.329773    -5.244031    7.396878    -2.960962    61.645367    26.535845    35.997379    5.897485    10.738334    9.542584    0.365856    10.295245    13.105581    3.938967    -8.080284    3.479891    -1.606824    21.398130    14.893416    -4.280910    -6.090290    18.228855    -6.095681    -5.803246    5.674714    1.035372    4.596364    1.849094    -6.298910    -1.149420    -2.729791    1.205028    -2.413404    1.939562    -1.369462    2.299318    0.091480    
7.094438    84.331703    15.049976    2.048686    -2.460298    3.523757    0.483390    11.629959    -1.714982    -2.982470    8.787041    40.744183    -29.859442    -8.279567    42.195438    -15.600971    -38.872002    -37.085911    86.525826    -19.246887    126.765228    -90.355286    54.486202    88.464455    79.663910    85.910057    -89.773270    -5.293967    7.468538    -3.188368    43.586037    45.765190    40.884125    0.277997    -1.768146    23.367405    1.977460    -1.710518    6.665874    3.987623    -8.291996    3.947739    -2.045133    21.543947    16.776268    -4.087501    -6.061512    17.177816    -6.453622    -6.397264    5.398629    1.080137    4.581838    1.682157    -6.338503    -1.075932    -2.873098    1.248422    -2.520966    1.898528    -1.377605    2.319325    0.081311    
7.133638    84.315247    15.039351    2.037898    -2.413342    3.867246    0.526443    11.630731    -1.716626    -3.059402    8.821081    40.998913    -29.635838    -8.185750    42.448997    -15.425817    -38.733025    -36.737789    81.894844    -19.626032    125.042397    -90.441216    54.125374    81.509590    21.682783    87.092758    -31.370378    -5.293816    7.446392    -3.194435    43.430244    45.756367    40.895248    0.281964    -1.769755    22.971277    1.971595    -1.712367    6.659786    3.869204    -8.306385    4.504474    -2.301394    21.455610    17.016851    -2.360250    -8.246464    18.092596    -5.212888    -4.774806    5.162529    1.141284    4.535286    1.776594    -6.468196    -0.968943    -3.289765    1.367488    -2.621399    1.884621    -1.408162    2.387293    0.055397    
